<svg width="88" height="27" viewBox="0 0 88 27" fill="none" xmlns="http://www.w3.org/2000/svg">
<path d="M15.25 6.5L19.75 2V6.5V9.875V14.1875V26.375H3.24999L15.4375 14.1875H10.75L8.5 11.9375L8.50276 11.932V8.75H8.5L10.75 6.5L15.25 2V6.5Z" fill="#1A1A1A"/>
<path d="M19.75 26.375L24.25 21.875V26.375H19.75Z" fill="#1A1A1A"/>
<path d="M17.125 4.625L15.25 6.5V3.875L17.125 2V4.625Z" fill="#6FE910"/>
<path d="M19.75 23.75L21.625 21.875V24.5L19.75 26.375V23.75Z" fill="#6FE910"/>
<path d="M12.625 4.625L8.5 8.75H8.50276V11.932L8.5 11.9375L10.75 14.1875H8.125L5.875 11.9375L5.87776 11.932V8.75H5.875L12.625 2V4.625Z" fill="#6FE910"/>
<path d="M12.8125 14.1875H15.4375L3.25 26.375H0.624996L12.8125 14.1875Z" fill="#6FE910"/>
<path d="M44.3924 7.10202V12.3824C43.4894 11.2757 42.6803 10.5163 41.965 10.1042C41.2614 9.68039 40.4346 9.46847 39.4848 9.46847C37.9955 9.46847 36.7583 9.99238 35.7733 11.0402C34.7882 12.088 34.2957 13.4008 34.2957 14.9784C34.2957 16.5914 34.7706 17.9159 35.7205 18.9519C36.6821 19.988 37.9075 20.506 39.3968 20.506C40.3467 20.506 41.1852 20.3 41.9122 19.8879C42.6158 19.4876 43.4425 18.7106 44.3924 17.5568V22.8018C42.7858 23.6377 41.1793 24.0557 39.5727 24.0557C36.9225 24.0557 34.7061 23.1962 32.9237 21.4773C31.1412 19.7466 30.25 17.598 30.25 15.0314C30.25 12.4648 31.153 10.2985 32.9589 8.53249C34.7648 6.76648 36.9811 5.88348 39.6079 5.88348C41.2966 5.88348 42.8914 6.28966 44.3924 7.10202Z" fill="#1A1A1A"/>
<path d="M59.776 6.3603H63.7513V23.5612H59.776V21.7599C58.146 23.2904 56.3928 24.0557 54.5165 24.0557C52.1477 24.0557 50.1894 23.1962 48.6415 21.4773C47.1053 19.7231 46.3372 17.5332 46.3372 14.9078C46.3372 12.3294 47.1053 10.1808 48.6415 8.46184C50.1777 6.74293 52.1008 5.88348 54.411 5.88348C56.4045 5.88348 58.1929 6.70761 59.776 8.35588V6.3603ZM50.3829 14.9078C50.3829 16.556 50.8226 17.8982 51.7021 18.9342C52.6051 19.9821 53.7426 20.506 55.1146 20.506C56.5804 20.506 57.7648 19.9997 58.6678 18.9872C59.5707 17.9394 60.0222 16.609 60.0222 14.9961C60.0222 13.3831 59.5707 12.0527 58.6678 11.0049C57.7648 9.98061 56.5922 9.46847 55.1498 9.46847C53.7895 9.46847 52.652 9.9865 51.7373 11.0226C50.8344 12.0704 50.3829 13.3654 50.3829 14.9078Z" fill="#1A1A1A"/>
<path d="M71.7471 10.0689V23.5612H67.7893V10.0689H66.1006V6.3603H67.7893L71.7471 0.0556641V6.3603H74.8253V10.0689H71.7471Z" fill="#1A1A1A"/>
<path d="M86.3918 9.29187L83.1201 11.0402C82.6041 9.98061 81.965 9.45081 81.2028 9.45081C80.8392 9.45081 80.5285 9.57443 80.2705 9.82167C80.0125 10.0571 79.8835 10.3632 79.8835 10.74C79.8835 11.3993 80.6457 12.0527 82.1702 12.7003C84.2693 13.6068 85.6824 14.4427 86.4094 15.208C87.1365 15.9732 87.5 17.0034 87.5 18.2985C87.5 19.9585 86.8902 21.3478 85.6706 22.4663C84.4862 23.5259 83.0556 24.0557 81.3787 24.0557C78.5056 24.0557 76.471 22.6487 75.2749 19.8349L78.6522 18.2632C79.1213 19.0873 79.4789 19.6112 79.7252 19.8349C80.206 20.2823 80.7806 20.506 81.449 20.506C82.7859 20.506 83.4543 19.8938 83.4543 18.6693C83.4543 17.9629 82.9383 17.3036 81.9064 16.6914C81.5077 16.4913 81.1089 16.297 80.7102 16.1086C80.3115 15.9203 79.907 15.726 79.4965 15.5259C78.3473 14.9607 77.5382 14.3956 77.0691 13.8305C76.471 13.1123 76.172 12.1881 76.172 11.0579C76.172 9.56265 76.6821 8.32645 77.7023 7.34926C78.746 6.37207 80.0125 5.88348 81.5018 5.88348C83.6947 5.88348 85.3247 7.01961 86.3918 9.29187Z" fill="#1A1A1A"/>
</svg>

