<svg width="20" height="20" viewBox="0 0 20 20" fill="none" xmlns="http://www.w3.org/2000/svg">
<g clip-path="url(#clip0_306_3457)">
<path fill-rule="evenodd" clip-rule="evenodd" d="M9.64283 5.625C9.97568 5.625 10.2455 5.90482 10.2455 6.25V9.64613L12.9663 11.3391C13.2517 11.5167 13.3443 11.9006 13.173 12.1966C13.0018 12.4925 12.6316 12.5885 12.3462 12.4109L9.33276 10.5359C9.15123 10.423 9.04016 10.2195 9.04016 10V6.25C9.04016 5.90482 9.30998 5.625 9.64283 5.625Z" fill="white"/>
<path fill-rule="evenodd" clip-rule="evenodd" d="M16.875 4.375C17.2078 4.375 17.4777 4.65482 17.4777 5V8.125C17.4777 8.47018 17.2078 8.75 16.875 8.75H13.8616C13.5287 8.75 13.2589 8.47018 13.2589 8.125C13.2589 7.77982 13.5287 7.5 13.8616 7.5H16.2723V5C16.2723 4.65482 16.5421 4.375 16.875 4.375Z" fill="white"/>
<path fill-rule="evenodd" clip-rule="evenodd" d="M10.8404 3.87424C9.67947 3.63023 8.47493 3.74642 7.37731 4.20828C6.27968 4.67014 5.33764 5.4572 4.66887 6.47111C4.00011 7.48501 3.63429 8.68082 3.61712 9.9091C3.59995 11.1374 3.93219 12.3437 4.57233 13.3773C5.21247 14.4109 6.13212 15.2259 7.21637 15.7206C8.30063 16.2152 9.5014 16.3676 10.6687 16.1586C11.8359 15.9496 12.9179 15.3885 13.7795 14.5454C14.0216 14.3085 14.403 14.32 14.6314 14.5711C14.8599 14.8221 14.8488 15.2177 14.6067 15.4546C13.5729 16.4662 12.2745 17.1395 10.8738 17.3903C9.47303 17.6411 8.03209 17.4583 6.73099 16.8647C5.42989 16.2711 4.32631 15.2931 3.55814 14.0528C2.78998 12.8125 2.39129 11.3649 2.41189 9.89098C2.4325 8.41704 2.87148 6.98208 3.67399 5.76539C4.47651 4.5487 5.60696 3.60423 6.92411 3.05C8.24127 2.49576 9.6867 2.35634 11.0798 2.64915C12.4729 2.94195 13.752 3.654 14.7571 4.69633L14.7598 4.69913C15.6651 5.64995 16.4108 6.54478 17.3422 7.73019C17.5525 7.99777 17.5138 8.39146 17.2557 8.60951C16.9977 8.82755 16.6181 8.78739 16.4078 8.51981C15.4895 7.35113 14.7709 6.48999 13.9035 5.57883C13.0661 4.71098 12.0007 4.11811 10.8404 3.87424Z" fill="white"/>
</g>
<defs>
<clipPath id="clip0_306_3457">
<rect width="19.2857" height="20" fill="white"/>
</clipPath>
</defs>
</svg>

