<svg width="20" height="20" viewBox="0 0 20 20" fill="none" xmlns="http://www.w3.org/2000/svg">
<g clip-path="url(#clip0_310_4622)">
<path fill-rule="evenodd" clip-rule="evenodd" d="M9.64293 3.125C5.98157 3.125 3.01346 6.20304 3.01346 10C3.01346 13.797 5.98157 16.875 9.64293 16.875C13.3043 16.875 16.2724 13.797 16.2724 10C16.2724 6.20304 13.3043 3.125 9.64293 3.125ZM1.80811 10C1.80811 5.51269 5.31587 1.875 9.64293 1.875C13.97 1.875 17.4777 5.51269 17.4777 10C17.4777 14.4873 13.97 18.125 9.64293 18.125C5.31587 18.125 1.80811 14.4873 1.80811 10Z" fill="#6FE910"/>
<path fill-rule="evenodd" clip-rule="evenodd" d="M9.64293 5C9.97578 5 10.2456 5.27982 10.2456 5.625V9.375H13.8617C14.1945 9.375 14.4644 9.65482 14.4644 10C14.4644 10.3452 14.1945 10.625 13.8617 10.625H9.64293C9.31008 10.625 9.04025 10.3452 9.04025 10V5.625C9.04025 5.27982 9.31008 5 9.64293 5Z" fill="#6FE910"/>
</g>
<defs>
<clipPath id="clip0_310_4622">
<rect width="19.2857" height="20" fill="white"/>
</clipPath>
</defs>
</svg>

