<svg width="46" height="45" viewBox="0 0 46 45" fill="none" xmlns="http://www.w3.org/2000/svg">
<rect x="0.5" width="45" height="45" rx="22.5" fill="#1A1A1A"/>
<g clip-path="url(#clip0_306_3422)">
<path fill-rule="evenodd" clip-rule="evenodd" d="M21.9274 14.5483C22.0848 14.7054 22.1429 14.9363 22.0786 15.1492C21.7312 16.2984 21.7022 17.5204 21.9945 18.6848C22.2868 19.8493 22.8896 20.9126 23.7385 21.7616C24.5874 22.6105 25.6508 23.2133 26.8153 23.5056C27.9797 23.7979 29.2017 23.7689 30.3509 23.4215C30.5637 23.3572 30.7947 23.4153 30.9518 23.5726C31.1089 23.73 31.1666 23.9611 31.1019 24.1738C30.7081 25.4683 29.9859 26.6388 29.0054 27.5713C28.0249 28.5038 26.8197 29.1664 25.507 29.4947C24.1944 29.823 22.8191 29.8058 21.515 29.4447C20.211 29.0835 19.0228 28.3909 18.066 27.4341C17.1092 26.4773 16.4165 25.2891 16.0554 23.985C15.6943 22.681 15.6771 21.3057 16.0054 19.9931C16.3336 18.6804 16.9963 17.4752 17.9288 16.4947C18.8613 15.5142 20.0318 14.7919 21.3263 14.3982C21.539 14.3335 21.7701 14.3912 21.9274 14.5483Z" fill="#6FE910"/>
</g>
<defs>
<clipPath id="clip0_306_3422">
<rect width="19.2857" height="19.2857" fill="white" transform="translate(13.3572 12.8572)"/>
</clipPath>
</defs>
</svg>

