<svg width="20" height="20" viewBox="0 0 20 20" fill="none" xmlns="http://www.w3.org/2000/svg">
<g clip-path="url(#clip0_454_976)">
<path fill-rule="evenodd" clip-rule="evenodd" d="M8.75 3.125C5.6434 3.125 3.125 5.6434 3.125 8.75C3.125 11.8566 5.6434 14.375 8.75 14.375C11.8566 14.375 14.375 11.8566 14.375 8.75C14.375 5.6434 11.8566 3.125 8.75 3.125ZM1.875 8.75C1.875 4.95304 4.95304 1.875 8.75 1.875C12.547 1.875 15.625 4.95304 15.625 8.75C15.625 12.547 12.547 15.625 8.75 15.625C4.95304 15.625 1.875 12.547 1.875 8.75Z" fill="#7C7C7C"/>
<path fill-rule="evenodd" clip-rule="evenodd" d="M12.7276 12.7276C12.9717 12.4835 13.3674 12.4835 13.6115 12.7276L17.942 17.0581C18.186 17.3022 18.186 17.6979 17.942 17.942C17.6979 18.186 17.3022 18.186 17.0581 17.942L12.7276 13.6115C12.4835 13.3674 12.4835 12.9717 12.7276 12.7276Z" fill="#7C7C7C"/>
</g>
<defs>
<clipPath id="clip0_454_976">
<rect width="20" height="20" fill="white"/>
</clipPath>
</defs>
</svg>
