<svg width="56" height="56" viewBox="0 0 56 56" fill="none" xmlns="http://www.w3.org/2000/svg">
<rect width="56" height="56" rx="28" fill="#E6F2EE"/>
<path d="M24.3799 28L26.7899 30.42L31.6199 25.58" stroke="#077D55" stroke-width="1.5" stroke-linecap="round" stroke-linejoin="round"/>
<path d="M26.7499 18.45C27.4399 17.86 28.5699 17.86 29.2699 18.45L30.8499 19.81C31.1499 20.07 31.7099 20.28 32.1099 20.28H33.8099C34.8699 20.28 35.7399 21.15 35.7399 22.21V23.91C35.7399 24.3 35.9499 24.87 36.2099 25.17L37.5699 26.75C38.1599 27.44 38.1599 28.57 37.5699 29.27L36.2099 30.85C35.9499 31.15 35.7399 31.71 35.7399 32.11V33.81C35.7399 34.87 34.8699 35.74 33.8099 35.74H32.1099C31.7199 35.74 31.1499 35.95 30.8499 36.21L29.2699 37.57C28.5799 38.16 27.4499 38.16 26.7499 37.57L25.1699 36.21C24.8699 35.95 24.3099 35.74 23.9099 35.74H22.1799C21.1199 35.74 20.2499 34.87 20.2499 33.81V32.1C20.2499 31.71 20.0399 31.15 19.7899 30.85L18.4399 29.26C17.8599 28.57 17.8599 27.45 18.4399 26.76L19.7899 25.17C20.0399 24.87 20.2499 24.31 20.2499 23.92V22.2C20.2499 21.14 21.1199 20.27 22.1799 20.27H23.9099C24.2999 20.27 24.8699 20.06 25.1699 19.8L26.7499 18.45Z" stroke="#077D55" stroke-width="1.5" stroke-linecap="round" stroke-linejoin="round"/>
</svg>

