<svg width="56" height="56" viewBox="0 0 56 56" fill="none" xmlns="http://www.w3.org/2000/svg">
<rect width="56" height="56" rx="28" fill="#143107"/>
<path d="M24.3799 28.0001L26.7899 30.4201L31.6199 25.5801" stroke="#16A163" stroke-width="1.5" stroke-linecap="round" stroke-linejoin="round"/>
<path d="M26.7499 18.4498C27.4399 17.8598 28.5699 17.8598 29.2699 18.4498L30.8499 19.8098C31.1499 20.0698 31.7099 20.2798 32.1099 20.2798H33.8099C34.8699 20.2798 35.7399 21.1498 35.7399 22.2098V23.9098C35.7399 24.2998 35.9499 24.8698 36.2099 25.1698L37.5699 26.7498C38.1599 27.4398 38.1599 28.5698 37.5699 29.2698L36.2099 30.8498C35.9499 31.1498 35.7399 31.7098 35.7399 32.1098V33.8098C35.7399 34.8698 34.8699 35.7398 33.8099 35.7398H32.1099C31.7199 35.7398 31.1499 35.9498 30.8499 36.2098L29.2699 37.5698C28.5799 38.1598 27.4499 38.1598 26.7499 37.5698L25.1699 36.2098C24.8699 35.9498 24.3099 35.7398 23.9099 35.7398H22.1799C21.1199 35.7398 20.2499 34.8698 20.2499 33.8098V32.0998C20.2499 31.7098 20.0399 31.1498 19.7899 30.8498L18.4399 29.2598C17.8599 28.5698 17.8599 27.4498 18.4399 26.7598L19.7899 25.1698C20.0399 24.8698 20.2499 24.3098 20.2499 23.9198V22.1998C20.2499 21.1398 21.1199 20.2698 22.1799 20.2698H23.9099C24.2999 20.2698 24.8699 20.0598 25.1699 19.7998L26.7499 18.4498Z" stroke="#16A163" stroke-width="1.5" stroke-linecap="round" stroke-linejoin="round"/>
</svg>
