<svg width="68" height="68" viewBox="0 0 68 68" fill="none" xmlns="http://www.w3.org/2000/svg">
<rect width="68" height="68" rx="34" fill="#6FE910" fill-opacity="0.2"/>
<g clip-path="url(#clip0_310_3689)">
<path fill-rule="evenodd" clip-rule="evenodd" d="M34 26.6875C29.5127 26.6875 25.875 30.3252 25.875 34.8125C25.875 39.2998 29.5127 42.9375 34 42.9375C38.4873 42.9375 42.125 39.2998 42.125 34.8125C42.125 30.3252 38.4873 26.6875 34 26.6875ZM24.25 34.8125C24.25 29.4277 28.6152 25.0625 34 25.0625C39.3848 25.0625 43.75 29.4277 43.75 34.8125C43.75 40.1973 39.3848 44.5625 34 44.5625C28.6152 44.5625 24.25 40.1973 24.25 34.8125Z" fill="#6FE910"/>
<path fill-rule="evenodd" clip-rule="evenodd" d="M38.637 30.1755C38.9543 30.4928 38.9543 31.0072 38.637 31.3245L34.5745 35.387C34.2572 35.7043 33.7428 35.7043 33.4255 35.387C33.1082 35.0697 33.1082 34.5553 33.4255 34.238L37.488 30.1755C37.8053 29.8582 38.3197 29.8582 38.637 30.1755Z" fill="#6FE910"/>
<path fill-rule="evenodd" clip-rule="evenodd" d="M30.75 22.625C30.75 22.1763 31.1138 21.8125 31.5625 21.8125H36.4375C36.8862 21.8125 37.25 22.1763 37.25 22.625C37.25 23.0737 36.8862 23.4375 36.4375 23.4375H31.5625C31.1138 23.4375 30.75 23.0737 30.75 22.625Z" fill="#6FE910"/>
</g>
<defs>
<clipPath id="clip0_310_3689">
<rect width="26" height="26" fill="white" transform="translate(21 21)"/>
</clipPath>
</defs>
</svg>
