<svg width="46" height="45" viewBox="0 0 46 45" fill="none" xmlns="http://www.w3.org/2000/svg">
<rect x="0.5" width="45" height="45" rx="22.5" fill="black"/>
<g clip-path="url(#clip0_310_4614)">
<path fill-rule="evenodd" clip-rule="evenodd" d="M22.9997 13.4598C23.3325 13.4598 23.6023 13.7297 23.6023 14.0625V15.8706C23.6023 16.2034 23.3325 16.4732 22.9997 16.4732C22.6668 16.4732 22.397 16.2034 22.397 15.8706V14.0625C22.397 13.7297 22.6668 13.4598 22.9997 13.4598Z" fill="#F5A505"/>
<path fill-rule="evenodd" clip-rule="evenodd" d="M18.1782 22.5C18.1782 19.8372 20.3368 17.6786 22.9997 17.6786C25.6625 17.6786 27.8211 19.8372 27.8211 22.5C27.8211 25.1628 25.6625 27.3214 22.9997 27.3214C20.3368 27.3214 18.1782 25.1628 18.1782 22.5Z" fill="#F5A505"/>
<path fill-rule="evenodd" clip-rule="evenodd" d="M16.5467 16.0471C16.7821 15.8117 17.1637 15.8117 17.399 16.0471L18.6044 17.2524C18.8397 17.4878 18.8397 17.8694 18.6044 18.1047C18.369 18.3401 17.9874 18.3401 17.7521 18.1047L16.5467 16.8994C16.3113 16.664 16.3113 16.2824 16.5467 16.0471Z" fill="#F5A505"/>
<path fill-rule="evenodd" clip-rule="evenodd" d="M18.6044 26.8953C18.8397 27.1306 18.8397 27.5122 18.6044 27.7476L17.399 28.953C17.1637 29.1883 16.7821 29.1883 16.5467 28.953C16.3113 28.7176 16.3113 28.336 16.5467 28.1006L17.7521 26.8953C17.9874 26.6599 18.369 26.6599 18.6044 26.8953Z" fill="#F5A505"/>
<path fill-rule="evenodd" clip-rule="evenodd" d="M29.4526 16.0471C29.688 16.2824 29.688 16.664 29.4526 16.8994L28.2472 18.1047C28.0119 18.3401 27.6303 18.3401 27.3949 18.1047C27.1596 17.8694 27.1596 17.4878 27.3949 17.2524L28.6003 16.0471C28.8356 15.8117 29.2172 15.8117 29.4526 16.0471Z" fill="#F5A505"/>
<path fill-rule="evenodd" clip-rule="evenodd" d="M27.3949 26.8953C27.6303 26.6599 28.0119 26.6599 28.2472 26.8953L29.4526 28.1006C29.688 28.336 29.688 28.7176 29.4526 28.953C29.2172 29.1883 28.8356 29.1883 28.6003 28.953L27.3949 27.7476C27.1596 27.5122 27.1596 27.1306 27.3949 26.8953Z" fill="#F5A505"/>
<path fill-rule="evenodd" clip-rule="evenodd" d="M13.9595 22.5C13.9595 22.1672 14.2293 21.8973 14.5622 21.8973H16.3702C16.703 21.8973 16.9729 22.1672 16.9729 22.5C16.9729 22.8329 16.703 23.1027 16.3702 23.1027H14.5622C14.2293 23.1027 13.9595 22.8329 13.9595 22.5Z" fill="#F5A505"/>
<path fill-rule="evenodd" clip-rule="evenodd" d="M22.9997 28.5268C23.3325 28.5268 23.6023 28.7966 23.6023 29.1295V30.9375C23.6023 31.2704 23.3325 31.5402 22.9997 31.5402C22.6668 31.5402 22.397 31.2704 22.397 30.9375V29.1295C22.397 28.7966 22.6668 28.5268 22.9997 28.5268Z" fill="#F5A505"/>
<path fill-rule="evenodd" clip-rule="evenodd" d="M29.0264 22.5C29.0264 22.1672 29.2963 21.8973 29.6291 21.8973H31.4372C31.77 21.8973 32.0398 22.1672 32.0398 22.5C32.0398 22.8329 31.77 23.1027 31.4372 23.1027H29.6291C29.2963 23.1027 29.0264 22.8329 29.0264 22.5Z" fill="#F5A505"/>
</g>
<defs>
<clipPath id="clip0_310_4614">
<rect width="19.2857" height="19.2857" fill="white" transform="translate(13.3569 12.8572)"/>
</clipPath>
</defs>
</svg>

